<?xml version="1.0" standalone="no"?><!DOCTYPE svg PUBLIC "-//W3C//DTD SVG 1.1//EN" "http://www.w3.org/Graphics/SVG/1.1/DTD/svg11.dtd"><svg t="1733058826592" class="icon" viewBox="0 0 1187 1024" version="1.1" xmlns="http://www.w3.org/2000/svg" p-id="8068" xmlns:xlink="http://www.w3.org/1999/xlink" width="231.8359375" height="200"><path d="M1081.344 798.72H106.496C49.152 798.72 0 749.568 0 692.224V106.496C0 49.152 49.152 0 106.496 0h972.8C1138.688 0 1187.84 49.152 1187.84 106.496v583.68c0 59.392-49.152 108.544-106.496 108.544zM106.496 51.2c-30.72 0-57.344 24.576-57.344 57.344v583.68c0 30.72 24.576 57.344 57.344 57.344h972.8c30.72 0 57.344-24.576 57.344-57.344V106.496c0-30.72-24.576-57.344-57.344-57.344H106.496z" fill="#1890FF" p-id="8069"></path><path d="M716.8 983.04H512V757.76h204.8v225.28z m-153.6-51.2h102.4v-122.88h-102.4v122.88z" fill="#1890FF" p-id="8070"></path><path d="M368.64 962.56h491.52c12.288 0 20.48 8.192 20.48 20.48v10.24c0 12.288-8.192 20.48-20.48 20.48H368.64c-12.288 0-20.48-8.192-20.48-20.48V983.04c0-12.288 8.192-20.48 20.48-20.48z" fill="#1890FF" p-id="8071"></path><path d="M358.4 307.2C307.2 307.2 266.24 266.24 266.24 215.04S307.2 122.88 358.4 122.88 450.56 163.84 450.56 215.04 409.6 307.2 358.4 307.2z m0-133.12c-22.528 0-40.96 18.432-40.96 40.96s18.432 40.96 40.96 40.96 40.96-18.432 40.96-40.96-18.432-40.96-40.96-40.96zM958.464 593.92H679.936C655.36 593.92 634.88 573.44 634.88 548.864v-153.6c0-24.576 20.48-45.056 45.056-45.056h276.48c24.576 0 45.056 20.48 45.056 45.056v153.6C1003.52 573.44 983.04 593.92 958.464 593.92z m-272.384-51.2h266.24v-143.36h-266.24v143.36z" fill="#1890FF" p-id="8072"></path><path d="M290.816 348.16h235.52c14.336 0 24.576 12.288 24.576 24.576 0 14.336-12.288 24.576-24.576 24.576H290.816c-14.336 0-24.576-12.288-24.576-24.576s12.288-24.576 24.576-24.576zM659.456 122.88h235.52c14.336 0 26.624 12.288 26.624 24.576 0 14.336-12.288 24.576-24.576 24.576H659.456c-14.336 0-24.576-12.288-24.576-24.576S647.168 122.88 659.456 122.88zM659.456 204.8h235.52c14.336 0 24.576 12.288 24.576 24.576 0 14.336-12.288 24.576-24.576 24.576H659.456c-14.336 0-24.576-12.288-24.576-24.576s12.288-24.576 24.576-24.576zM290.816 430.08h235.52c14.336 0 24.576 12.288 24.576 24.576 0 14.336-12.288 24.576-24.576 24.576H290.816c-14.336 0-24.576-12.288-24.576-24.576s12.288-24.576 24.576-24.576zM290.816 512h235.52c14.336 0 24.576 12.288 24.576 24.576 0 14.336-12.288 24.576-24.576 24.576H290.816c-14.336 0-24.576-12.288-24.576-24.576s12.288-24.576 24.576-24.576z" fill="#1890FF" p-id="8073"></path></svg>