<?xml version="1.0" standalone="no"?><!DOCTYPE svg PUBLIC "-//W3C//DTD SVG 1.1//EN" "http://www.w3.org/Graphics/SVG/1.1/DTD/svg11.dtd"><svg t="1737380482079" class="icon" viewBox="0 0 1024 1024" version="1.1" xmlns="http://www.w3.org/2000/svg" p-id="12738" xmlns:xlink="http://www.w3.org/1999/xlink" width="200" height="200"><path d="M597.312 128c0-23.552 19.136-42.688 42.688-42.688h256c23.552 0 42.688 19.136 42.688 42.688v256a42.688 42.688 0 0 1-85.376 0V170.688H640A42.688 42.688 0 0 1 597.312 128z" fill="#000000" p-id="12739"></path><path d="M926.144 97.856c16.64 16.64 16.64 43.648 0 60.288l-384 384a42.688 42.688 0 1 1-60.288-60.288l384-384c16.64-16.64 43.648-16.64 60.288 0z" fill="#000000" p-id="12740"></path><path d="M213.312 170.688a42.688 42.688 0 0 0-42.624 42.624v597.376c0 23.552 19.072 42.624 42.624 42.624h597.376a42.688 42.688 0 0 0 42.624-42.624v-128a42.688 42.688 0 0 1 85.376 0v128a128 128 0 0 1-128 128H213.312a128 128 0 0 1-128-128V213.312a128 128 0 0 1 128-128h128a42.688 42.688 0 0 1 0 85.376h-128z" fill="#000000" p-id="12741"></path></svg>