<?xml version="1.0" standalone="no"?><!DOCTYPE svg PUBLIC "-//W3C//DTD SVG 1.1//EN" "http://www.w3.org/Graphics/SVG/1.1/DTD/svg11.dtd"><svg t="1737380550050" class="icon" viewBox="0 0 1024 1024" version="1.1" xmlns="http://www.w3.org/2000/svg" p-id="14538" xmlns:xlink="http://www.w3.org/1999/xlink" width="200" height="200"><path d="M738.2016 74.24c-13.312 13.824-13.312 35.328-0.512 49.152l107.008 111.616h-128.512l-10.752 0.512c-107.52 3.584-205.312 65.536-258.048 163.328-28.672 53.76-56.32 217.088-56.32 280.064 0 19.456 15.36 34.816 33.792 34.816 18.944 0 33.792-15.36 33.792-34.816 0-24.064 5.632-68.608 13.312-114.688l4.608-24.576c1.024-4.096 1.536-8.192 2.56-12.288l5.12-23.552c7.168-30.72 14.848-56.832 22.016-70.144 42.496-79.36 122.88-128 209.92-128h128.512l-107.008 111.616c-9.216 8.704-12.8 22.016-9.728 34.304 3.072 12.288 12.8 22.016 24.576 25.088 11.776 3.072 24.576-0.512 32.768-9.728l164.864-171.52c5.632-6.144 9.216-14.336 9.728-23.04v-4.096a37.12 37.12 0 0 0-9.728-23.04l-164.864-171.52a32.768 32.768 0 0 0-47.104 0.512zM473.6 145.664H193.536c-72.192 4.096-129.536 66.048-129.536 141.312v539.136c4.096 74.752 64 133.632 136.704 133.632h590.848c72.192-4.096 129.536-65.536 129.536-141.312v-219.648c-2.56-18.432-17.92-32.256-35.84-30.72a34.304 34.304 0 0 0-31.744 34.816v221.184c-3.584 37.376-33.28 65.536-69.12 65.536H200.704l-5.632-0.512c-35.328-2.56-63.488-33.28-63.488-70.656V286.976l0.512-5.632c3.072-36.864 32.768-65.536 68.608-65.024h272.896l4.096-0.512c17.92-2.048 30.72-18.432 29.696-37.376a34.2528 34.2528 0 0 0-33.792-32.768z" fill="#2c2c2c" p-id="14539"></path><path d="M741.888 77.824a30.72 30.72 0 0 0-0.4608 42.0864l115.2512 120.2176h-140.4928v-5.12l0.256 5.12-10.752 0.512q-79.36 2.6624-147.0976 45.568-67.7888 42.9056-106.7008 115.0464-19.8656 37.2736-38.4 135.168-17.3056 91.392-17.3056 142.4896 0 12.4416 8.4992 21.0944 8.3968 8.6016 20.1728 8.6016 12.032 0 20.3264-8.5504 8.3456-8.6016 8.3456-21.1456 0-35.2256 13.3632-115.5072l4.6592-24.832v-0.1536 0.1536-0.1536q0.512-1.8944 1.28-5.8368 0.768-4.2496 1.3312-6.4512l4.9664 1.2288-5.0176-1.0752 5.12-23.552q12.2368-52.3776 22.528-71.4752 32.4608-60.672 90.112-95.744 57.4976-34.9696 124.3136-34.9696h140.4928l-115.4048 120.3712-0.0512 0.1024a30.0544 30.0544 0 0 0-8.2944 29.3376q4.2496 16.9984 20.8896 21.3504a27.6992 27.6992 0 0 0 27.648-8.192h0.1024l164.864-171.6224 3.7376 3.5328-3.7888-3.4816 3.7888 3.4816-3.7888-3.4816q7.68-8.3968 8.3968-19.8656l5.12 0.3072h-5.12v-4.096h5.12l-5.12 0.3072 5.12-0.3072-5.12 0.3072q-0.7168-11.5712-8.3968-19.8656l-164.7616-171.4688a27.8016 27.8016 0 0 0-39.7312 0.512z m-7.3728-7.168a38.0928 38.0928 0 0 1 54.4768-0.512l164.9152 171.6224q10.1376 10.9568 11.1104 26.2144v0.1536-0.1536 4.7104q-0.9216 15.104-11.0592 26.2144h-0.0512L788.992 470.528l-3.6864-3.5328 3.84 3.3792a37.888 37.888 0 0 1-37.888 11.264q-22.528-5.8368-28.2624-28.7744a40.2944 40.2944 0 0 1 11.1616-39.2704l3.5328 3.7376-3.6864-3.584 107.008-111.616 3.6864 3.584v5.12h-128.512q-64 0-118.9888 33.4848-55.296 33.6384-86.4256 91.8016-9.6256 17.92-21.504 68.8128l-5.12 23.6544-0.0512 0.0512q-0.512 1.8944-1.2288 5.8368-0.768 4.2496-1.3312 6.4512l-4.9664-1.2288 4.9664 1.2288-4.9664-1.2288 5.0176 0.9216-4.608 24.4736q-13.2096 79.4624-13.2096 113.8688 0 16.6912-11.264 28.2624-11.264 11.6736-27.648 11.6736-16.0768 0-27.4944-11.6736-11.4176-11.6736-11.4176-28.2624 0-52.0704 17.5104-144.4352 18.7904-99.4304 39.424-138.0352 40.192-74.5472 110.2336-118.8864 70.144-44.4416 152.064-47.104l10.8544-0.5632h128.6656v5.12l-3.6864 3.584-107.0592-111.7184a40.96 40.96 0 0 1 0.512-56.1664zM473.6 150.8352H193.536v-5.12l0.3072 5.12-0.3072-5.12 0.3072 5.12q-52.224 2.9696-88.3712 42.3424-36.352 39.5264-36.352 93.8496v539.136h-5.12l5.12-0.256-5.12 0.256 5.12-0.256q2.9696 54.1184 41.0624 91.4432 38.144 37.376 90.5216 37.376h590.848v5.12l-0.3072-5.12 0.3072 5.12-0.3072-5.12q52.2752-3.0208 88.3712-42.1376 36.352-39.424 36.352-94.1056v-219.648h5.12l-5.0688 0.7168 5.0688-0.7168-5.0688 0.7168q-1.6896-12.032-10.4448-19.6608-8.704-7.6288-19.9168-6.656h-0.1024 0.0512-0.0512q-11.3152 0.6656-19.0976 9.216-7.8336 8.6016-7.8336 20.48v221.696-0.256 0.256q-2.8672 29.952-24.064 50.0224-21.248 20.1216-50.176 20.1216H200.448l-5.8368-0.512q-28.5696-2.048-48.3328-23.9616-19.8144-21.9136-19.8144-51.8144V286.7712l0.512-5.888q2.5088-29.6448 23.6032-49.7664 21.2992-20.3264 50.176-19.9168H473.6v5.12l-0.6144-5.0688 4.096-0.512q11.3152-1.28 18.5344-10.4448 7.3216-9.216 6.656-21.5552-0.6656-11.776-9.0112-19.9168-8.2944-8.0384-19.6608-8.0384z m0-10.24q15.5136 0 26.7776 10.9056 11.264 10.9056 12.1344 26.7264 0.8704 16.1792-8.8576 28.4672-9.8816 12.4928-25.344 14.2848l-4.4032 0.512H200.704q-24.7296-0.3584-43.008 17.1008-18.2784 17.408-20.48 43.264l-0.512 5.632-5.0688-0.4608h5.12v531.456q0 25.9584 17.152 44.9536 17.0496 18.8416 41.6768 20.6336l5.632 0.512-0.4608 5.12v-5.12h583.68q24.832 0 43.1104-17.408 18.432-17.408 20.8896-43.52l5.12 0.512-5.12-0.512 5.12 0.512h-5.12v-221.184q0-15.872 10.496-27.392 10.5984-11.6736 26.112-12.5952l0.256 5.12-0.3072-5.12 0.3072 5.12-0.4608-5.12q15.5136-1.28 27.4944 9.1648 11.6736 10.1376 13.8752 25.9584l0.0512 0.3584-0.0512-0.3584 0.0512 0.3584v220.0064q0 58.6752-39.0656 101.0176-38.912 42.24-95.2832 45.4144h-0.1536 0.1536H200.704q-56.576 0-97.6384-40.2432-40.96-40.0896-44.1856-98.2016v-0.1536 0.1536V286.976q0-58.368 39.0656-100.8128 38.9632-42.3936 95.2832-45.568h0.1536-0.1536H473.6z" fill="#2c2c2c" p-id="14540"></path></svg>